# xmcd
#
# Track frame offsets:
#	150
#	14986
#	30347
#	47439
#	63463
#	79719
#	96480
#	111462
#	128679
#	144011
#	159049
#	172597
#	192015
#	204801
#	219140
#
# Disc length: 3010
#
# Revision: 1
# Processed by: cddbd v1.5.1PL0 Copyright (c) Steve Scherf et al.
# Submitted via: VisiTrax 2.9.5.180 - For more info visit www.synapsa.com
# Normalized: r0:DSETVAR1
#
DISCID=b30bc00f
DTITLE=Various Artist - CDX 218 July 1999
DYEAR=1999
DGENRE=
TTITLE0=Teresa/Linda Ronstadt - Brave new girls (Cady's song)
TTITLE1=Lila McCann - Crush
TTITLE2=Suzy Bogguss - Goodnight
TTITLE3=John Michael Montgomery - Home to you
TTITLE4=Keith Perry - I'm gonna hurt her on the radio
TTITLE5=David Ball - I want to be with you
TTITLE6=Lisa Angelle - I wear your love
TTITLE7=Clay Walker - Live laugh love
TTITLE8=Jerry Kilgore - Love trip
TTITLE9=Kinleys - My heart is still beating
TTITLE10=Shane Minor - Ordinary love
TTITLE11=Sammy Kershaw - When you love someone
TTITLE12=Don Emerson - You got your way
TTITLE13=Oak Ridge Boys - Baby when your heart breaks down
TTITLE14=4 Sisters and a Cousin - Star spangled banner
EXTD=
EXTT0=
EXTT1=
EXTT2=
EXTT3=
EXTT4=
EXTT5=
EXTT6=
EXTT7=
EXTT8=
EXTT9=
EXTT10=
EXTT11=
EXTT12=
EXTT13=
EXTT14=
PLAYORDER=
